<svg xmlns="http://www.w3.org/2000/svg" viewBox="0 0 731.69 437.51"><path fill="#fff" stroke="#000" stroke-miterlimit="10" stroke-width="3" d="M252.6 434.51L2.6 1.5h500l-250 433.01z"/><path fill="none" stroke="#000" stroke-miterlimit="10" stroke-width="3" d="M37.82 62.5h429.56M73.46 125h357.83M109.99 187.51h285.22M146.07 250.01h213.05M182.16 312.51h140.88M217.43 375.01h69.52"/><path fill="none" stroke="#000" stroke-miterlimit="10" stroke-width="2" d="M310.6 88.5v.67"/><path fill="none" stroke="#000" stroke-miterlimit="10" d="M467.38 62.5h6"/><path fill="none" stroke="#000" stroke-miterlimit="10" stroke-dasharray="12.01486587524414,12.01486587524414" d="M485.39 62.5h234.29"/><path fill="none" stroke="#000" stroke-miterlimit="10" d="M725.69 62.5h6M431.29 125h6"/><path fill="none" stroke="#000" stroke-miterlimit="10" stroke-dasharray="12.346588134765625,12.346588134765625" d="M449.64 125h265.45"/><path fill="none" stroke="#000" stroke-miterlimit="10" d="M721.26 125h6M395.21 187.51h6"/><path fill="none" stroke="#000" stroke-miterlimit="10" stroke-dasharray="11.853960990905762,11.853960990905762" d="M413.06 187.51h302.28"/><path fill="none" stroke="#000" stroke-miterlimit="10" d="M721.26 187.51h6M359.12 250.01h6"/><path fill="none" stroke="#000" stroke-miterlimit="10" stroke-dasharray="12.28077220916748,12.28077220916748" d="M377.4 250.01h337.72"/><path fill="none" stroke="#000" stroke-miterlimit="10" d="M721.26 250.01h6M323.04 312.51h6"/><path fill="none" stroke="#000" stroke-miterlimit="10" stroke-dasharray="11.88569164276123,11.88569164276123" d="M340.92 312.51h374.4"/><path fill="none" stroke="#000" stroke-miterlimit="10" d="M721.26 312.51h6M286.95 375.01h6"/><path fill="none" stroke="#000" stroke-miterlimit="10" stroke-dasharray="12.23752212524414,12.23752212524414" d="M305.19 375.01h409.96"/><path fill="none" stroke="#000" stroke-miterlimit="10" d="M721.26 375.01h6M252.6 436.51h6"/><path fill="none" stroke="#000" stroke-miterlimit="10" stroke-dasharray="11.976737976074219,11.976737976074219" d="M270.57 436.51H719.7"/><path fill="none" stroke="#000" stroke-miterlimit="10" d="M725.69 436.51h6M502.6 1.5h6"/><path fill="none" stroke="#000" stroke-miterlimit="10" stroke-dasharray="12.509803771972656,12.509803771972656" d="M521.11 1.5h193.9"/><path fill="none" stroke="#000" stroke-miterlimit="10" d="M721.26 1.5h6"/><text transform="translate(578.89 413.97)" font-size="24" font-family="OpenSans-Extrabold,Open Sans" font-weight="700">UTILITIES</text><text transform="translate(518.26 352.57)" font-size="24" font-family="OpenSans-Extrabold,Open Sans" font-weight="700">COMPONENTS</text><text transform="translate(611.44 103.97)" font-size="24" font-family="OpenSans-Extrabold,Open Sans" font-weight="700">TOOLS</text><text transform="translate(587.39 167.37)" font-size="24" font-family="OpenSans-Extrabold,Open Sans" font-weight="700">GENERIC</text><text transform="translate(566.96 228.77)" font-size="24" font-family="OpenSans-Extrabold,Open Sans" font-weight="700">ELEMENTS</text><text transform="translate(591.17 290.17)" font-size="24" font-family="OpenSans-Extrabold,Open Sans" font-weight="700">OBJECTS</text><text transform="translate(579.28 44.57)" font-size="24" font-family="OpenSans-Extrabold,Open Sans" font-weight="700">SETTINGS</text></svg>