<svg version="1" xmlns="http://www.w3.org/2000/svg" width="933.333" height="933.333" viewBox="0 0 700.000000 700.000000"><path d="M.4 1.7C1.2 4.5 3.2 12.3 3.5 14c.2.8 4.2 16.8 8.9 35.5s8.8 34.9 9.1 36c.2 1.1 3.4 13.9 7.1 28.5 3.6 14.6 6.7 27.2 6.9 28l4 16 4 16 4 16 4 16 16 64 16 64 8 32 8 32 16 64 16 64c.2.8 4.2 17 9 36s10 39.7 11.5 46c3 12.5 17.2 69.1 19.5 78 .7 3 1.9 7.4 2.5 9.7l1.1 4.3h344.6l4.2-16.8c2.4-9.2 4.4-17.4 4.6-18.2.2-.8 1.8-6.9 3.5-13.5 9.6-37.1 12.4-48.1 15-58 1.5-6.1 4.8-18.9 7.3-28.5 2.5-9.6 7.3-28.3 10.7-41.5 3.4-13.2 13.4-51.7 22.2-85.5 8.7-33.8 16.1-62.4 16.3-63.6.3-1.2 2.5-9.9 5-19.5 8.3-32 18.7-72.4 18.9-73.4.1-.6.5-1.9.9-3 .3-1.1.8-3.1 1.1-4.5.3-1.4 2.8-11.3 5.6-22 10-38.3 23.1-89 23.5-91 .2-.8 1.7-6.7 3.3-13 1.7-6.3 5.6-21.4 8.7-33.5 6.6-25.6 11.8-46 18.2-70.5 2.5-9.6 4.7-18.2 4.9-19 1.4-5.7 5.5-21.8 6-23.3C700.1.1 683 0 350 0S-.1.1.4 1.7zm239.2 170.6c1.2.3 4.5.8 7.5 1.2 7 .8 19.5 3.2 28.9 5.5 13.1 3.3 24.5 7.3 56.5 19.7 5 1.9 14.6 5.4 21.5 7.8 12.1 4.2 31.4 11.3 37.5 14 4.4 1.9 23.9 8.1 32.8 10.4 6.8 1.8 20.9 4.5 34.2 6.6 2.2.4 14.4.8 27 1 28.3.4 42.1-1.2 72.5-8.6 15.8-3.8 41.3-12.1 58.7-19 4.2-1.6 7.8-2.8 8.1-2.5.2.3-.8 5.1-2.2 10.8-6.8 25.9-25.8 97.8-27.1 102.3-1.4 4.8-14.3 53.3-15 56.5-.2.8-2.4 9.4-5 19-6.8 25.4-8.7 32.3-9 34-.2.8-2 7.6-4 15-6.1 22.5-6.4 24-10.6 40-2.2 8.5-4.9 18.4-5.9 22-1 3.6-5.7 21.3-10.5 39.5-4.8 18.1-13 49-18.2 68.5-5.2 19.5-11 41.5-12.9 48.9-1.9 7.4-3.7 13.7-3.9 14-.5.9-304.8.6-306.1-.2-.7-.4-1.4-1.9-1.6-3.4-.3-1.6-1.9-8.3-3.7-15-1.8-6.7-3.4-13-3.6-14-.2-1-3.2-12.4-6.5-25.3s-6.2-24.2-6.4-25c-.2-.8-3.2-12.3-6.6-25.5-3.4-13.2-6.3-24.7-6.5-25.5-.2-.8-1.2-4.9-2.3-9-1.1-4.1-5.9-22.6-10.6-41-4.7-18.4-10.6-41.2-13-50.5-2.4-9.4-7.4-28.7-11.1-43-3.7-14.3-9.8-38.2-13.7-53-3.8-14.9-7.5-29.5-8.2-32.5-1.2-5-9.8-38.1-14.7-57-1.1-4.1-2.2-8.2-2.4-9-.2-.8-2.9-11.5-6-23.8s-5.5-22.5-5.3-22.7c.2-.2 5.8-2.5 12.3-5.1 34.5-13.3 58.9-20.1 90-24.9 13.1-2 18-2.2 39-2 13.2.2 24.9.5 26.1.8z"/><path d="M246.4 302.2c-.3.5-.5 19.3-.5 41.8-.1 39.5 0 41.2 2 45.3 3 6.1 8.3 8.9 16.9 9 7.1 0 18.2-2.7 18.2-4.4 0-.6-.5-4.1-1.1-7.8l-1.1-6.8-3.2.6c-5.4 1.2-9.1 0-10-3.2-.3-1.2-.6-18.7-.6-38.8v-36.5h-10.1c-5.5 0-10.3.4-10.5.8zM182.8 304.6c-25.4 5.8-40.6 30.3-35.2 56.4 3.8 17.7 17.6 32.3 34.1 35.9 4.4.9 14.6.7 19.7-.4 1.5-.3 5.2-2.1 8.2-4 3-1.9 5.5-3.1 5.5-2.7.1.4.1 2.1.1 3.9 0 1.7.5 3.3 1.1 3.5 1.1.3 10 .3 15.2-.1 1.9-.1 2-.8 1.9-23.4-.1-12.7-.2-23.7-.3-24.2-.1-.8-13.3-1.1-32.9-.6l-2.8.1v7.2c0 4 .4 7.5.8 7.8.4.3 4.3.5 8.8.4 4.4-.1 8.2.2 8.5.7.9 1.4-6.1 8.3-10.7 10.6-13 6.5-27.1 2-33.4-10.7-5.3-10.8-3.4-27.2 4.3-35.2 6.7-7 17.4-9.1 26.5-5 4.3 1.9 10.8 7.5 10.8 9.3 0 .5.5.9 1.2.9 1.5 0 15.8-10.8 15.8-11.9 0-2-10.1-11.8-14.7-14.3-9.2-5-21.9-6.6-32.5-4.2zM303.6 328.6c-6.5 2-13.7 9.3-15.5 15.5-1.3 4.7-.9 10.5 1 14 1.8 3.4 10 7.8 20.4 11 12.9 4 15.5 5.5 15.5 9.1 0 7.9-18.9 6.4-29.7-2.4-1.7-1.4-2.8-.5-6.3 5.8-3.8 6.5-3.5 7.1 5 11.4 10.2 5.2 24.5 6.8 34.9 4 5.4-1.4 12.2-6.7 14.4-11.2 3.4-7 2.7-15.7-1.7-20.7-3.1-3.5-13.6-8-25.6-11.1-6.6-1.7-9-3.5-9-7 0-6.4 9.1-7.1 20.5-1.6 3.8 1.9 7 3.4 7.1 3.3 4.8-7.3 7.3-12 6.9-12.7-1.2-1.9-9.6-6.2-14.7-7.6-6.8-1.8-16.9-1.7-23.2.2zM372.4 328.4c-4.8 1.1-15.4 5.5-17.3 7.2-.1.1 1.1 3.2 2.8 6.8l3 6.5 4.6-2.6c9.5-5.3 20.9-6.3 26.5-2.3 2.8 2 5.5 9.5 4.1 11.2-.4.4-2.2.3-4.1-.2-16.4-4.4-34.6 2.1-39.2 13.9-1.6 4.2-1.6 11.3-.1 15 4 9.6 11.2 14.2 22.3 14.4 7.5.1 15.3-2.9 20.8-8.1l3.3-3.1 1.6 4c2 5 6 7.3 12.8 7 8.4-.3 8.2-.1 8.1-9.6-.1-7.4-.4-8.7-2.3-10-1.9-1.4-2.1-2.4-2.2-16-.1-12.8-.4-15.1-2.5-19.8-3.2-7.2-9.6-12.3-18-14.4-5.1-1.2-18.5-1.1-24.2.1zm21.1 38.4c2.7.8 3 1.1 2.7 4.8-.5 5.2-2.4 8.1-7 10-9.2 3.9-18.2.6-18.2-6.7 0-7.6 10.5-11.4 22.5-8.1zM447.4 328.1c-9.9 2.9-17.4 12-17.4 21 0 11 4.4 14.7 24.7 20.9 5.6 1.7 10.6 3.7 11.3 4.5 1.9 2.3 1.9 5.3 0 7-3.9 3.5-14.6 2.1-24.5-3.3-6.6-3.6-6.4-3.7-11 5L428 388l4.7 3c7.3 4.6 16.5 7.1 26.3 7.2 19.7.3 31.2-10.2 28.5-25.9-1.2-7.6-7.2-11.7-25.2-17.2-5.6-1.8-10.9-3.9-11.8-4.7-3.5-3.5-.4-8.3 5.6-8.6 5-.3 9.7 1 15.6 4.3l5.2 3 1.7-2.8c.9-1.5 2.7-4.3 4-6.2l2.3-3.5-3.2-2.3c-3.8-2.9-8-4.8-12.7-6.1-4.7-1.2-17.8-1.3-21.6-.1zM511.8 328.6c-9.8 3.4-14.9 9.5-16.3 19.5-1.4 10.3 4.3 15.6 23.2 21.4 12 3.8 14.3 5.2 14.3 9.1 0 4.7-8.5 6.2-17.9 3.2-1.9-.6-5.9-2.4-8.9-4-2.9-1.7-5.5-2.8-5.6-2.6-.2.1-1.9 3-3.8 6.3l-3.5 6.1 3.6 2.5c14.8 10.3 38.1 11.1 49.4 1.8 6.1-5.1 8.7-14 6.2-21.3-2.6-7.4-7.5-10.4-25.5-15.7-10-3-13.2-5.3-12.3-8.9 1.5-5.5 10.3-5.7 20.7-.5 3.8 1.9 7 3.4 7.1 3.2.1-.1 1.8-2.8 3.9-6 2-3.1 3.4-6.2 3.1-6.7-1.2-1.9-9.5-6.2-14.7-7.6-6.3-1.7-17.9-1.6-23 .2z"/></svg>